<svg width="300" height="68" fill="none" xmlns="http://www.w3.org/2000/svg"><path d="M26.9 38.996l15.977 23.758-3.346 5.065H3.35L0 62.743 38.782 4.005H4.09l14.134 21.402-2.4 3.634L0 5.076 3.352 0H39.53l3.346 5.065L4.09 63.82h34.692L24.5 42.63l2.4-3.633zM76.037 53.58V19.6h12.21c3.8 0 6.752.906 8.857 2.726 2.105 1.82 3.16 4.338 3.16 7.562 0 2.17-.481 4.043-1.438 5.622-.957 1.58-2.33 2.782-4.117 3.612-1.788.83-3.942 1.246-6.463 1.246h-8.092v13.206h-4.117v.006zm4.117-17.228h8.092c2.554 0 4.478-.541 5.769-1.628 1.29-1.082 1.94-2.694 1.94-4.836 0-2.142-.645-3.64-1.94-4.688-1.29-1.055-3.215-1.58-5.769-1.58h-8.092v12.732zm26.055 17.228V19.6h21.356v4.02h-17.239v10.961h16.665v3.924h-16.665v11.053h17.622v4.022h-21.739zm58.562 0V19.6h21.357v4.02h-17.239v10.961h16.665v3.924h-16.665v11.053h17.622v4.022h-21.74zm28.4 0V19.6h12.209c3.8 0 6.753.906 8.858 2.726 2.105 1.82 3.16 4.338 3.16 7.562 0 2.17-.481 4.043-1.438 5.622-.957 1.58-2.329 2.782-4.117 3.612-1.788.83-3.942 1.246-6.463 1.246h-8.092v13.206h-4.117v.006zm4.117-17.228h8.092c2.553 0 4.478-.541 5.768-1.628 1.291-1.082 1.941-2.694 1.941-4.836 0-2.142-.645-3.64-1.941-4.688-1.295-1.05-3.215-1.58-5.768-1.58h-8.092v12.732zm27.008 17.228V19.6h4.118v32.062l-2.062-2.104h19.06v4.022h-21.121.005zm25.384 0V19.6h21.356v4.02h-17.239v10.961h16.665v3.924h-16.665v11.053h17.622v4.022H249.68zm4.5-37.948v-4.688h4.215v4.688h-4.215zm8.332 0v-4.688h4.216v4.688h-4.216zm22.791 37.948V23.62h-10.585V19.6H300v4.02h-10.585v29.96h-4.117.005zM150.511 40.023c1-.207 1.93-.502 2.766-.89 1.788-.83 3.161-2.033 4.117-3.612.957-1.579 1.438-3.453 1.438-5.622 0-3.224-1.055-5.743-3.16-7.562-2.105-1.82-5.063-2.727-8.857-2.727h-12.21v33.98h4.118V40.385h7.009l8.776 13.206h5.013l-9.005-13.561-.005-.006zm-11.788-3.682V23.626h8.092c2.553 0 4.478.525 5.768 1.58 1.29 1.054 1.941 2.617 1.941 4.687 0 2.071-.645 3.749-1.941 4.836-1.077.901-2.592 1.431-4.544 1.579l-9.322.033h.006z" fill="#fff"/></svg>